<svg width="730.73" height="77.881" viewBox="5.91 -3.8806992375571596 736.73 83.88069923755717" xmlns="http://www.w3.org/2000/svg"><g id="svgGroup" stroke-linecap="round" fill-rule="evenodd" font-size="9pt" stroke="#ffffff" stroke-width="0.25mm" fill="#ffffff" style="stroke:#ffffff;stroke-width:0.25mm;fill:#ffffff"><path d="M 418.33 55.22 L 426.91 55.22 Q 427.24 60.5 430.43 63.745 Q 433.62 66.99 438.845 68.53 A 37.458 37.458 0 0 0 445.784 69.853 A 46.592 46.592 0 0 0 450.34 70.07 Q 459.58 70.07 464.97 66.825 A 11.415 11.415 0 0 0 468.435 63.706 Q 470.36 61.013 470.36 57.2 A 8.916 8.916 0 0 0 469.88 54.216 A 7.623 7.623 0 0 0 467.665 50.985 A 17.096 17.096 0 0 0 464.752 48.949 Q 463.291 48.128 461.527 47.449 A 31.153 31.153 0 0 0 460.515 47.08 Q 456.06 45.54 450.78 44.275 Q 445.5 43.01 440.165 41.58 A 55.845 55.845 0 0 1 433.245 39.25 A 47.765 47.765 0 0 1 430.375 37.95 Q 425.92 35.75 423.225 32.285 A 12.44 12.44 0 0 1 420.909 27.202 A 17.812 17.812 0 0 1 420.53 23.43 A 18.696 18.696 0 0 1 422.195 15.459 A 18.49 18.49 0 0 1 427.405 8.91 Q 432.486 4.764 441.263 3.682 A 54.528 54.528 0 0 1 447.92 3.3 Q 455.25 3.3 460.625 4.972 A 26.013 26.013 0 0 1 463.87 6.215 Q 470.14 9.13 473.275 13.86 Q 476.41 18.59 476.74 24.09 L 468.27 24.09 A 13.204 13.204 0 0 0 464.049 15.896 A 17.916 17.916 0 0 0 462.77 14.795 A 15.134 15.134 0 0 0 458.307 12.446 Q 454.23 11.045 448.304 11.001 A 52.026 52.026 0 0 0 447.92 11 A 51.418 51.418 0 0 0 443.958 11.143 Q 442.087 11.288 440.497 11.58 A 21.75 21.75 0 0 0 437.91 12.21 A 21.837 21.837 0 0 0 435.478 13.126 Q 434.254 13.679 433.291 14.334 A 10.134 10.134 0 0 0 432.025 15.345 A 12.771 12.771 0 0 0 430.589 16.936 Q 429.839 17.934 429.419 18.974 A 7.632 7.632 0 0 0 429.275 19.36 A 13.864 13.864 0 0 0 428.722 21.488 A 10.769 10.769 0 0 0 428.56 23.32 A 7.922 7.922 0 0 0 429.113 26.327 A 7.32 7.32 0 0 0 431.255 29.205 A 17.173 17.173 0 0 0 434.059 31.09 Q 435.491 31.872 437.22 32.525 A 32.195 32.195 0 0 0 438.405 32.945 A 91.3 91.3 0 0 0 443.713 34.529 A 116.42 116.42 0 0 0 448.25 35.64 Q 453.64 36.85 458.975 38.335 A 55.906 55.906 0 0 1 465.895 40.741 A 47.987 47.987 0 0 1 468.765 42.075 A 22.29 22.29 0 0 1 473.22 45.012 A 18.683 18.683 0 0 1 475.915 47.85 A 12.681 12.681 0 0 1 478.199 52.875 Q 478.607 54.707 478.61 56.836 A 22.322 22.322 0 0 1 478.61 56.87 A 21.138 21.138 0 0 1 477.527 63.803 A 17.342 17.342 0 0 1 470.91 72.435 A 26.983 26.983 0 0 1 462.757 76.252 Q 457.129 77.88 449.79 77.88 Q 442.106 77.88 436.49 76.399 A 29.188 29.188 0 0 1 432.3 74.965 A 26.208 26.208 0 0 1 427.071 71.983 A 19.746 19.746 0 0 1 422.235 66.88 A 24.846 24.846 0 0 1 418.367 55.624 A 28.969 28.969 0 0 1 418.33 55.22 Z M 344.52 77 L 336.27 77 L 336.27 0 L 344.52 0 L 344.52 30.58 Q 347.49 26.62 351.78 23.87 A 16.385 16.385 0 0 1 356.761 21.786 Q 358.883 21.266 361.363 21.152 A 30.899 30.899 0 0 1 362.78 21.12 Q 368.5 21.12 373.505 23.815 A 20.454 20.454 0 0 1 380.806 30.513 A 24.94 24.94 0 0 1 381.645 31.845 Q 384.78 37.18 384.78 44.99 L 384.78 77 L 376.53 77 L 376.53 45.21 A 21.254 21.254 0 0 0 375.927 40.01 A 15.245 15.245 0 0 0 372.24 33.165 A 14.284 14.284 0 0 0 362.387 28.64 A 19.367 19.367 0 0 0 361.13 28.6 A 17.589 17.589 0 0 0 355.477 29.489 A 16.033 16.033 0 0 0 352.77 30.69 Q 349.03 32.78 346.775 36.575 A 16.104 16.104 0 0 0 344.632 43.173 A 20.175 20.175 0 0 0 344.52 45.32 L 344.52 77 Z M 625.57 77 L 617.32 77 L 617.32 0 L 625.57 0 L 625.57 30.58 Q 628.54 26.62 632.83 23.87 A 16.385 16.385 0 0 1 637.811 21.786 Q 639.933 21.266 642.413 21.152 A 30.899 30.899 0 0 1 643.83 21.12 Q 649.55 21.12 654.555 23.815 A 20.454 20.454 0 0 1 661.856 30.513 A 24.94 24.94 0 0 1 662.695 31.845 Q 665.83 37.18 665.83 44.99 L 665.83 77 L 657.58 77 L 657.58 45.21 A 21.254 21.254 0 0 0 656.977 40.01 A 15.245 15.245 0 0 0 653.29 33.165 A 14.284 14.284 0 0 0 643.437 28.64 A 19.367 19.367 0 0 0 642.18 28.6 A 17.589 17.589 0 0 0 636.527 29.489 A 16.033 16.033 0 0 0 633.82 30.69 Q 630.08 32.78 627.825 36.575 A 16.104 16.104 0 0 0 625.682 43.173 A 20.175 20.175 0 0 0 625.57 45.32 L 625.57 77 Z M 279.4 59.73 L 287.98 59.73 A 12.695 12.695 0 0 0 289.351 64.09 A 15.141 15.141 0 0 0 289.905 65.065 A 10.191 10.191 0 0 0 292.565 67.91 A 14.001 14.001 0 0 0 294.8 69.245 Q 297.35 70.477 301.082 70.758 A 30.731 30.731 0 0 0 303.38 70.84 A 21.202 21.202 0 0 0 304.718 70.794 Q 305.325 70.755 306.008 70.684 A 45.604 45.604 0 0 0 307.45 70.51 Q 309.87 70.18 312.125 69.3 Q 314.38 68.42 315.92 66.66 A 6.123 6.123 0 0 0 317.338 63.619 A 8.502 8.502 0 0 0 317.46 62.15 A 7.015 7.015 0 0 0 317.065 59.743 A 5.976 5.976 0 0 0 314.82 56.87 Q 312.541 55.256 309.114 54.256 A 29.737 29.737 0 0 0 308 53.955 A 238.93 238.93 0 0 0 302.019 52.544 A 278.752 278.752 0 0 0 299.145 51.92 A 59.938 59.938 0 0 1 291.343 49.724 A 54.543 54.543 0 0 1 290.29 49.335 A 19.218 19.218 0 0 1 286.283 47.268 A 15.799 15.799 0 0 1 283.47 44.825 A 9.755 9.755 0 0 1 281.283 40.673 Q 280.89 39.175 280.838 37.4 A 18.732 18.732 0 0 1 280.83 36.85 A 16.404 16.404 0 0 1 281.596 31.712 A 13.097 13.097 0 0 1 286.275 25.245 Q 290.185 22.283 296.788 21.448 A 44.755 44.755 0 0 1 302.39 21.12 A 38.541 38.541 0 0 1 307.063 21.386 Q 311.219 21.895 314.215 23.375 A 20.703 20.703 0 0 1 317.788 25.59 A 15.417 15.417 0 0 1 321.145 29.15 Q 323.51 32.67 323.95 36.74 L 315.59 36.74 A 8.927 8.927 0 0 0 313.007 31.505 A 11.91 11.91 0 0 0 312.125 30.69 A 8.888 8.888 0 0 0 309.464 29.205 Q 306.623 28.16 302.17 28.16 A 32.354 32.354 0 0 0 297.721 28.438 Q 289.08 29.645 289.08 36.08 A 6.542 6.542 0 0 0 289.467 38.381 Q 290.091 40.054 291.72 41.14 A 16.83 16.83 0 0 0 294.325 42.543 Q 295.665 43.128 297.256 43.596 A 32.341 32.341 0 0 0 298.54 43.945 A 183.065 183.065 0 0 0 304.804 45.39 A 212.841 212.841 0 0 0 307.395 45.925 A 51.939 51.939 0 0 1 315.726 48.307 A 47.893 47.893 0 0 1 316.25 48.51 Q 320.43 50.16 323.07 53.185 A 10.231 10.231 0 0 1 325.24 57.4 Q 325.644 58.946 325.701 60.774 A 19.518 19.518 0 0 1 325.71 61.38 A 16.817 16.817 0 0 1 324.922 66.661 A 13.479 13.479 0 0 1 319.605 73.645 A 21.94 21.94 0 0 1 312.849 76.72 Q 309.945 77.517 306.506 77.767 A 44.777 44.777 0 0 1 303.27 77.88 A 37.876 37.876 0 0 1 297.597 77.478 Q 294.535 77.014 291.975 76.013 A 21.205 21.205 0 0 1 290.455 75.35 A 22.581 22.581 0 0 1 286.1 72.628 A 17.548 17.548 0 0 1 282.48 68.695 Q 279.73 64.57 279.4 59.73 Z M 489.06 54.01 L 489.06 22 L 497.31 22 L 497.31 53.79 Q 497.31 61.27 501.655 65.835 A 14.48 14.48 0 0 0 512.086 70.39 A 19.25 19.25 0 0 0 512.71 70.4 A 17.126 17.126 0 0 0 518.521 69.432 A 15.835 15.835 0 0 0 521.07 68.255 Q 524.81 66.11 527.065 62.37 A 15.689 15.689 0 0 0 529.179 56.079 A 19.917 19.917 0 0 0 529.32 53.68 L 529.32 22 L 537.57 22 L 537.57 77 L 529.32 77 L 529.32 68.42 Q 526.35 72.38 522.06 75.13 A 16.385 16.385 0 0 1 517.079 77.214 Q 514.957 77.734 512.477 77.848 A 30.899 30.899 0 0 1 511.06 77.88 Q 505.45 77.88 500.39 75.185 A 20.453 20.453 0 0 1 492.852 68.211 A 24.768 24.768 0 0 1 492.195 67.155 Q 489.06 61.82 489.06 54.01 Z M 273.13 49.5 L 273.13 52.8 L 227.04 52.8 Q 227.7 57.64 230.175 61.655 Q 232.65 65.67 236.83 68.035 A 18.19 18.19 0 0 0 243.501 70.21 A 23.217 23.217 0 0 0 246.51 70.4 A 21.822 21.822 0 0 0 250.938 69.973 A 15.43 15.43 0 0 0 256.3 67.815 Q 260.26 65.23 262.46 61.16 L 271.48 61.16 Q 268.62 68.53 262.405 73.205 A 22.433 22.433 0 0 1 253.894 77.078 Q 250.682 77.827 246.936 77.876 A 40.393 40.393 0 0 1 246.4 77.88 A 31.124 31.124 0 0 1 238.562 76.931 A 25.315 25.315 0 0 1 231.77 74.085 Q 225.5 70.29 222.035 63.8 A 29.716 29.716 0 0 1 218.578 50.229 A 34.796 34.796 0 0 1 218.57 49.5 A 32.799 32.799 0 0 1 219.851 40.207 A 28.975 28.975 0 0 1 221.87 35.145 Q 225.17 28.71 231.33 24.915 Q 237.49 21.12 245.85 21.12 A 31.706 31.706 0 0 1 253.04 21.899 A 24.295 24.295 0 0 1 260.425 24.915 Q 266.53 28.71 269.83 35.145 A 30.226 30.226 0 0 1 273.041 46.941 A 36.364 36.364 0 0 1 273.13 49.5 Z M 594.77 30.91 L 594.77 0 L 603.02 0 L 603.02 77 L 594.77 77 L 594.77 68.2 Q 591.69 72.6 586.795 75.24 A 21.407 21.407 0 0 1 580.492 77.41 A 29.682 29.682 0 0 1 575.08 77.88 A 28.7 28.7 0 0 1 567.559 76.931 A 23.616 23.616 0 0 1 561.055 74.085 Q 555.06 70.29 551.76 63.8 A 30.721 30.721 0 0 1 548.489 50.953 A 36.12 36.12 0 0 1 548.46 49.5 A 32.799 32.799 0 0 1 549.741 40.207 A 28.975 28.975 0 0 1 551.76 35.145 Q 555.06 28.71 561.055 24.915 A 24.405 24.405 0 0 1 571.192 21.357 A 31.05 31.05 0 0 1 575.08 21.12 A 29.504 29.504 0 0 1 580.679 21.625 A 21.319 21.319 0 0 1 586.795 23.76 Q 591.69 26.4 594.77 30.91 Z M 193.93 77 L 184.25 77 L 162.69 22 L 171.71 22 L 189.09 68.2 L 206.36 22 L 215.38 22 L 193.93 77 Z M 8.25 77 L 0 77 L 0 4.18 L 32.78 4.18 A 34.674 34.674 0 0 1 40.367 4.962 Q 46.799 6.404 51.15 10.505 Q 57.86 16.83 57.86 27.61 A 27.945 27.945 0 0 1 56.916 35.069 A 20.487 20.487 0 0 1 51.15 44.715 Q 44.686 50.808 33.627 51.032 A 42.002 42.002 0 0 1 32.78 51.04 L 8.25 51.04 L 8.25 77 Z M 146.74 30.91 L 146.74 22 L 154.99 22 L 154.99 77 L 146.74 77 L 146.74 68.2 Q 143.66 72.6 138.765 75.24 A 21.407 21.407 0 0 1 132.462 77.41 A 29.682 29.682 0 0 1 127.05 77.88 A 28.7 28.7 0 0 1 119.529 76.931 A 23.616 23.616 0 0 1 113.025 74.085 Q 107.03 70.29 103.73 63.8 A 30.721 30.721 0 0 1 100.459 50.953 A 36.12 36.12 0 0 1 100.43 49.5 A 32.799 32.799 0 0 1 101.711 40.207 A 28.975 28.975 0 0 1 103.73 35.145 Q 107.03 28.71 113.025 24.915 A 24.405 24.405 0 0 1 123.162 21.357 A 31.05 31.05 0 0 1 127.05 21.12 A 29.504 29.504 0 0 1 132.649 21.625 A 21.319 21.319 0 0 1 138.765 23.76 Q 143.66 26.4 146.74 30.91 Z M 722.48 30.91 L 722.48 22 L 730.73 22 L 730.73 77 L 722.48 77 L 722.48 68.2 Q 719.4 72.6 714.505 75.24 A 21.407 21.407 0 0 1 708.202 77.41 A 29.682 29.682 0 0 1 702.79 77.88 A 28.7 28.7 0 0 1 695.269 76.931 A 23.616 23.616 0 0 1 688.765 74.085 Q 682.77 70.29 679.47 63.8 A 30.721 30.721 0 0 1 676.199 50.953 A 36.12 36.12 0 0 1 676.17 49.5 A 32.799 32.799 0 0 1 677.451 40.207 A 28.975 28.975 0 0 1 679.47 35.145 Q 682.77 28.71 688.765 24.915 A 24.405 24.405 0 0 1 698.902 21.357 A 31.05 31.05 0 0 1 702.79 21.12 A 29.504 29.504 0 0 1 708.389 21.625 A 21.319 21.319 0 0 1 714.505 23.76 Q 719.4 26.4 722.48 30.91 Z M 75.57 77 L 67.32 77 L 67.32 22 L 75.57 22 L 75.57 35.53 A 12.167 12.167 0 0 1 75.92 34.558 Q 76.333 33.537 77.037 32.186 A 46.972 46.972 0 0 1 77.275 31.735 A 17.15 17.15 0 0 1 78.771 29.431 Q 79.591 28.357 80.643 27.271 A 29.373 29.373 0 0 1 80.96 26.95 A 18.916 18.916 0 0 1 84.28 24.328 A 24.689 24.689 0 0 1 87.065 22.825 Q 90.75 21.12 95.81 21.12 L 96.36 21.12 L 96.36 29.37 L 95.37 29.37 A 18.93 18.93 0 0 0 89.636 30.209 A 16.145 16.145 0 0 0 84.755 32.725 Q 80.3 36.08 77.935 41.415 Q 75.57 46.75 75.57 52.8 L 75.57 77 Z M 8.25 11.99 L 8.25 43.34 L 32.23 43.34 A 28.085 28.085 0 0 0 37.177 42.933 Q 42.183 42.036 45.21 39.16 A 13.735 13.735 0 0 0 49.18 31.905 A 20.351 20.351 0 0 0 49.61 27.61 A 19.336 19.336 0 0 0 49.042 22.79 A 13.592 13.592 0 0 0 45.21 16.17 A 13.953 13.953 0 0 0 39.866 13.068 Q 36.587 11.99 32.23 11.99 L 8.25 11.99 Z M 128.15 70.4 A 22.033 22.033 0 0 0 133.005 69.891 A 16.145 16.145 0 0 0 138.545 67.54 Q 142.78 64.68 144.98 59.895 A 24.405 24.405 0 0 0 147.171 50.198 A 28.225 28.225 0 0 0 147.18 49.5 A 25.816 25.816 0 0 0 146.277 42.578 A 22.764 22.764 0 0 0 144.98 39.05 Q 142.78 34.32 138.545 31.46 A 16.358 16.358 0 0 0 132.372 28.977 A 22.571 22.571 0 0 0 128.15 28.6 A 21.506 21.506 0 0 0 122.841 29.228 A 17.075 17.075 0 0 0 117.7 31.46 Q 113.3 34.32 110.99 39.05 A 23.028 23.028 0 0 0 108.726 47.911 A 27.345 27.345 0 0 0 108.68 49.5 A 23.799 23.799 0 0 0 110.449 58.686 A 22.972 22.972 0 0 0 110.99 59.895 Q 113.3 64.68 117.7 67.54 A 17.593 17.593 0 0 0 124.877 70.174 A 22.948 22.948 0 0 0 128.15 70.4 Z M 576.18 70.4 A 22.033 22.033 0 0 0 581.035 69.891 A 16.145 16.145 0 0 0 586.575 67.54 Q 590.81 64.68 593.01 59.895 A 24.405 24.405 0 0 0 595.201 50.198 A 28.225 28.225 0 0 0 595.21 49.5 A 25.816 25.816 0 0 0 594.307 42.578 A 22.764 22.764 0 0 0 593.01 39.05 Q 590.81 34.32 586.575 31.46 A 16.358 16.358 0 0 0 580.402 28.977 A 22.571 22.571 0 0 0 576.18 28.6 A 21.506 21.506 0 0 0 570.871 29.228 A 17.075 17.075 0 0 0 565.73 31.46 Q 561.33 34.32 559.02 39.05 A 23.028 23.028 0 0 0 556.756 47.911 A 27.345 27.345 0 0 0 556.71 49.5 A 23.799 23.799 0 0 0 558.479 58.686 A 22.972 22.972 0 0 0 559.02 59.895 Q 561.33 64.68 565.73 67.54 A 17.593 17.593 0 0 0 572.907 70.174 A 22.948 22.948 0 0 0 576.18 70.4 Z M 703.89 70.4 A 22.033 22.033 0 0 0 708.745 69.891 A 16.145 16.145 0 0 0 714.285 67.54 Q 718.52 64.68 720.72 59.895 A 24.405 24.405 0 0 0 722.911 50.198 A 28.225 28.225 0 0 0 722.92 49.5 A 25.816 25.816 0 0 0 722.017 42.578 A 22.764 22.764 0 0 0 720.72 39.05 Q 718.52 34.32 714.285 31.46 A 16.358 16.358 0 0 0 708.112 28.977 A 22.571 22.571 0 0 0 703.89 28.6 A 21.506 21.506 0 0 0 698.581 29.228 A 17.075 17.075 0 0 0 693.44 31.46 Q 689.04 34.32 686.73 39.05 A 23.028 23.028 0 0 0 684.466 47.911 A 27.345 27.345 0 0 0 684.42 49.5 A 23.799 23.799 0 0 0 686.189 58.686 A 22.972 22.972 0 0 0 686.73 59.895 Q 689.04 64.68 693.44 67.54 A 17.593 17.593 0 0 0 700.617 70.174 A 22.948 22.948 0 0 0 703.89 70.4 Z M 227.15 45.1 L 264.55 45.1 A 21.159 21.159 0 0 0 261.714 37.202 A 20.148 20.148 0 0 0 258.61 33.33 A 16.32 16.32 0 0 0 249.673 28.905 A 23.031 23.031 0 0 0 245.85 28.6 Q 237.93 28.6 233.145 33.33 A 21.015 21.015 0 0 0 227.25 44.554 A 25.72 25.72 0 0 0 227.15 45.1 Z" vector-effect="non-scaling-stroke"/></g></svg>